<?xml version="1.0" encoding="UTF-8"?>
<svg xmlns="http://www.w3.org/2000/svg" width="96" height="96" viewBox="0 0 96 96">
  <style>
    @media (prefers-color-scheme: dark) {
      #main-circle { fill: #27272a; /* zinc-800 */ }
      #outer-circle { stroke: #a1a1aa; /* zinc-400 */ }
      #grid-lines { stroke: #71717a; /* zinc-500 */ }
      .bar-chart { fill: #d97706; /* amber-600 */ }
      .trend-line { fill: #b45309; /* amber-700 */ }
      .arrow { fill: #d97706; /* amber-600 */ }
    }
    @media (prefers-color-scheme: light) {
      #main-circle { fill: #a1a1aa66; /* zinc-400/40 */ }
      #outer-circle { stroke: #f4f4f5; /* zinc-100 */ }
      #grid-lines { stroke: #d4d4d8; /* zinc-300 */ }
      .bar-chart { fill: #d97706; /* amber-600 */ }
      .trend-line { fill: #b45309; /* amber-700 */ }
      .arrow { fill: #d97706; /* amber-600 */ }
    }
  </style>
  <g transform="translate(-2 -2)">
    <circle id="main-circle" cx="48" cy="48" r="48" transform="translate(2 2)"/>
    <path id="grid-lines" d="M25,35H75M25,50H75M25,65H75" stroke-width="0.5" opacity="0.3"/>
    <rect class="bar-chart" width="8" height="10" transform="translate(35 65)" opacity="0.9"/>
    <rect class="bar-chart" width="8" height="15" transform="translate(45 60)" opacity="0.9"/>
    <rect class="bar-chart" width="8" height="20" transform="translate(55 55)" opacity="0.9"/>
    <path class="trend-line" d="M50,47.808a58.54,58.54,0,0,1,4.038-9.428c3.305-6.144,7.716-10.7,13.068-13.38l2.653,3.457c-8.268,2.756-13.637,10.518-14.683,12.609" transform="translate(-11.674 11.278)"/>
    <circle id="outer-circle" cx="45" cy="45" r="45" transform="translate(5 5)" fill="none" stroke-width="0.5" opacity="0.1"/>
    <path class="arrow" d="M65,15l11.629,5.814L70.814,32.443" transform="matrix(0.966, -0.259, 0.259, 0.966, -15.541, 33.168)"/>
  </g>
</svg> 